#!OML:ASF E:/inclinewalkrobotboard/Project1/Captureday1/Session1/subject1.ASF
:FULLY-SPECIFIED
:DEGREES
201
root 0 0 0 -1.3913196126355996 0.5435840032291903 1.9176528770629644
lowerback 10.46053991240937 -1.4647029172831676 -3.966256066986225
upperback 0.4442137109793012 -2.2923795932173547 1.714473684618485
thorax -5.230208425918051 -1.0300960097342613 4.329787899643996
lowerneck -17.940090526917103 -2.492229011973992 -2.2234975999164814
upperneck 19.805339344892232 -2.863896974492521 -0.2354648878599659
head 9.224548248398689 -1.4955012364533151 -0.1006595441785823
rclavicle -1.0498702533530239E-15 5.437212790066079E-16
rhumerus -35.48208492050681 -23.86804679055787 -77.51729437489772
rradius 19.141119986117992
rwrist 6.822046701031739
rhand -18.04405534705702 25.12350131807063
rfingers 7.125020000000024
rthumb 8.22446908261088 -4.702373927474589
lclavicle -1.803421276550375E-15 -1.486613746962489E-16
lhumerus -26.71030047860698 -3.314580630573781 80.53806396058765
lradius 31.748433229871505
lwrist 7.497483971327544
lhand -27.837763514770636 25.94528067870051
lfingers 7.125019999999996
lthumb -1.2531729034032253 55.952783822235126
rfemur -32.11047218698666 5.914805564045492 20.64527199982584
rtibia 23.209208030952514
rfoot -9.486731742658183 -11.699416564728246
rtoes -1.980933928553123
lfemur 12.603396577228601 -3.4988120055167844 -28.180134223733646
ltibia 20.20235422225761
lfoot -12.751310378546668 -4.311310582503991
ltoes -5.615710895012434
202
root 0 0 0 -1.5414232967489512 0.8861432538444105 0.2627932685026244
lowerback 9.893534182078765 -1.6270575619243965 -2.666156851249319
upperback 0.11904827485157976 -2.3320440583520456 2.1708084021149974
thorax -5.258512692255203 -1.0758088836715713 4.092847480422475
lowerneck -18.449421659694966 -2.313521362587619 -2.0872531522566793
upperneck 21.226430693644204 -2.709476361372527 -0.3800910572200731
head 9.811721305893567 -1.3895437924021943 -0.1675788752016657
rclavicle -1.2321661040706828E-15 -6.105328400561472E-17
rhumerus -35.808676625629765 -24.374547779851785 -77.30971011302024
rradius 18.542065499716614
rwrist 7.45434118794202
rhand -17.956234751217323 25.19621383707986
rfingers 7.125020000000023
rthumb 8.308805594326433 -4.620079175385413
lclavicle -2.473474061444506E-15 -7.395772574113281E-16
lhumerus -27.274334174236103 -3.0973566264567682 80.74023875862707
lradius 31.52089689110396
lwrist 7.4628195084088915
lhand -27.796225134757066 25.87451802402201
lfingers 7.125019999999998
lthumb -1.210677807026551 55.877545811420916
rfemur -25.730849567749733 6.336187979714008 22.036410387656538
rtibia 21.313127623042494
rfoot -9.055116208283668 -8.8285197174927
rtoes 1.9937353862547498
lfemur 14.678718900179618 -3.5924751727414383 -27.417034114709452
ltibia 24.428942762959416
lfoot -8.459718103600775 -7.60928868832878
ltoes -7.972924205698195
203
root 0 0 0 -2.2963226258701765 0.37223990802174844 -1.5737680705490034
lowerback 9.530714700017974 -1.5787327249988454 -0.9730991520096093
upperback -0.07717285533001975 -2.06098666672007 2.484281033962138
thorax -5.3411549190336975 -0.975226354843888 3.448761069800229
lowerneck -17.85997793581102 -2.095749651574368 -1.7105169817556372
upperneck 21.70583319393338 -2.4479432656494184 -0.6416955169264511
head 9.84037120690523 -1.2665340109125012 -0.2757688100699866
rclavicle -1.50950694669902E-15 -1.3697373373680028E-15
rhumerus -36.045174700001965 -24.64480837513753 -77.27846081480867
rradius 17.961599312266614
rwrist 8.27741992863874
rhand -17.84081439743549 25.35560269025502
rfingers 7.1250200000000214
rthumb 8.420465761384648 -4.445409288540702
lclavicle -3.743786261511817E-15 -2.2399077810622104E-15
lhumerus -28.94501760879878 -2.3486711858263454 81.68518150997474
lradius 30.51496488786501
lwrist 7.183107063413949
lhand -27.61554817824439 25.596095550124694
lfingers 7.125020000000008
lthumb -1.026421759322215 55.586696266193385
rfemur -19.91249239411239 6.626773285024246 24.479502944959158
rtibia 22.43824401563276
rfoot -9.349400998978563 -5.631679900811362
rtoes 7.804806060560211
lfemur 6.121663881272222 -1.6074564843852222 -21.543394902139514
ltibia 53.18678582175686
lfoot 13.59507692236842 -20.211887105171805
ltoes 0.6039947989149148
204
root 0 0 0 -3.163050079011601 -0.475433459405312 -3.5828683672443287
lowerback 10.995754037332098 -1.3165581182247292 0.8223561011778229
upperback 0.6326972322762462 -1.4746239687185103 2.8760881543820753
thorax -5.473201498392841 -0.7213373419611899 2.770827004885464
lowerneck -16.78785619864935 -2.395621281103379 -1.672851453162684
upperneck 18.205571358424237 -2.74018540457232 -0.47323775519341305
head 8.416978893089944 -1.4638028263288523 -0.22901347457068905
rclavicle -1.436489864019189E-15 -3.090572640773475E-15
rhumerus -35.62815619309875 -24.156210082673415 -77.55041204358423
rradius 18.143985711252974
rwrist 8.347330713327082
rhand -17.821852925947965 25.624807014024576
rfingers 7.1250200000000214
rthumb 8.438205536959277 -4.172815223019093
lclavicle -3.9665583524607804E-15 -4.38206622794012E-15
lhumerus -29.507766855809674 -2.1302204070813304 82.6790515449285
lradius 29.80472535079715
lwrist 6.85127958800885
lhand -27.544345924359362 25.15272935196373
lfingers 7.125020000000015
lthumb -0.9540706052745005 55.140684726339956
rfemur -19.461186866369488 6.748493686819527 25.70252244656176
rtibia 24.71752561566941
rfoot -9.376967031090777 -5.579042905411191
rtoes 9.389546855021539
lfemur -4.2772719683191145 0.25976601064990756 -16.57430929153172
ltibia 60.20930847279868
lfoot 15.457256682316505 -19.915188515272018
ltoes -3.257041842257273
